<svg id="Layer_1" enable-background="new 0 0 512 512" height="512" viewBox="0 0 512 512" width="512" xmlns="http://www.w3.org/2000/svg"><g><g><path d="m426.001 120h-2.997l-37.608-103.417c-4.001-11.004-10.527-16.583-19.398-16.583h-219.996c-8.869 0-15.396 5.579-19.398 16.582l-37.607 103.418h-2.997c-11.028 0-20 8.972-20 20v25c0 11.028 8.972 20 20 20h.645l19.378 290.417c1.438 21.54 17.877 36.583 39.979 36.583h219.996c21.751 0 38.565-15.385 39.979-36.583l19.377-290.417h.647c11.027 0 19.999-8.972 19.999-20v-25c0-11.028-8.972-20-19.999-20zm-85.862-100-13.637 60h-141.003l-13.637-60zm45.882 454.086c-.576 8.628-7.087 17.914-20.023 17.914h-219.996c-13.897 0-19.471-9.65-20.022-17.914l-19.289-289.086h298.62zm-300.021-309.086v-25h124.997c5.523 0 10-4.477 10-10s-4.477-10-10-10h-100.718l35.121-96.582c.686-1.884 1.207-2.894 1.533-3.418h4.42l14.898 65.549c1.994 8.778 8.438 14.451 16.418 14.451h146.665c7.978 0 14.422-5.672 16.417-14.45l14.897-65.55h4.42c.326.524.847 1.534 1.532 3.417l35.121 96.583h-100.724c-5.522 0-10 4.477-10 10s4.478 10 10 10h125.003l.001 25z"/><path d="m206 279.553h100c5.522 0 10-4.477 10-10v-45c0-5.523-4.478-10-10-10h-100c-5.523 0-10 4.477-10 10v45c0 5.523 4.477 10 10 10zm10-45h80v25h-80z"/><path d="m256 120h-.007c-5.523 0-9.996 4.477-9.996 10s4.48 10 10.003 10 10-4.477 10-10-4.477-10-10-10z"/></g></g></svg>